<?xml version="1.0" encoding="utf-8" ?>
<svg baseProfile="full" height="200mm" version="1.1" viewBox="0,0,200,200" width="200mm" xmlns="http://www.w3.org/2000/svg" xmlns:ev="http://www.w3.org/2001/xml-events" xmlns:xlink="http://www.w3.org/1999/xlink"><defs /><rect fill="#1a1a1a" height="200" width="200" x="0" y="0" /><text alignment-baseline="middle" fill="#e1ed5e" style="dominant-baseline: central; font-size:9.0px; font-family:Arial;" text-anchor="middle" x="100.0" y="100.0">2021</text><line stroke="#e1ed5e" stroke-width="0.3" x1="100.0" x2="100.0" y1="15.0" y2="10.0" /><path d="M 100.0 14.0 a86.0,86.0 0 0,1 42.46469731375804,11.215312516191453" fill="none" id="id61" stroke="none" /><text fill="#e1ed5e" style="font-size:6.75px; font-family:Arial;" text-anchor="middle"><textPath startOffset="22.20632615414155" xlink:href="#id61">January</textPath></text><line stroke="#e1ed5e" stroke-width="0.3" x1="143.23703022742887" x2="145.7803849466894" y1="26.81831364943548" y2="22.513508569990506" /><path d="M 143.74570117128098 25.957352633546492 a86.0,86.0 0 0,1 28.547481713284135,27.462654790039103" fill="none" id="id62" stroke="none" /><text fill="#e1ed5e" style="font-size:6.75px; font-family:Arial;" text-anchor="middle"><textPath startOffset="19.985693538727396" xlink:href="#id62">February</textPath></text><path d="M 111.90073688211348 82.69761687909136 l 10.751535205069821 -15.631568288485528 a39.97212261249231,39.97212261249231 0 0,0 0.5635476566811036,0.39480114746330186 l -11.019014001334575 15.44418229825829" fill="red" stroke="none" /><path d="M 112.48926042617603 83.11751280151076 l 11.292784442723407 -15.26513838961959 a39.988191870845775,39.988191870845775 0 0,0 0.5498449622359277,0.4141318260745757 l -11.553875558717717 15.068489974039167" fill="red" stroke="none" /><line stroke="#e1ed5e" stroke-width="0.3" x1="172.23445277983987" x2="176.4835382374775" y1="55.19839476539836" y2="52.563006222186495" /><path d="M 173.08426987136738 54.67131705675599 a86.0,86.0 0 0,1 12.851231095245387,41.99856678651699" fill="none" id="id63" stroke="none" /><text fill="#e1ed5e" style="font-size:6.75px; font-family:Arial;" text-anchor="middle"><textPath startOffset="22.20632615414155" xlink:href="#id63">March</textPath></text><path d="M 117.84615892207809 88.93136811851018 l 16.105161678138167 -9.98882206448661 a39.95132710168195,39.95132710168195 0 0,0 0.35743919999549806,0.5875360624830815 l -16.27471667641989 9.710118228796448" fill="red" stroke="none" /><line stroke="#e1ed5e" stroke-width="0.3" x1="184.98032266829074" x2="189.97916517819016" y1="98.17113171792111" y2="98.06355123074" /><path d="M 185.9800911702706 98.14961562048488 a86.0,86.0 0 0,1 -9.607161424134198,41.387399972396054" fill="none" id="id64" stroke="none" /><text fill="#e1ed5e" style="font-size:6.75px; font-family:Arial;" text-anchor="middle"><textPath startOffset="21.466115282336823" xlink:href="#id64">April</textPath></text><path d="M 119.79798401119884 107.00284435728193 l 17.919152387756135 6.338273387577829 a40.00709688067338,40.00709688067338 0 0,0 -0.23523361201793494,0.6472618714570438 l -17.807394514732973 -6.6457830560410045" fill="red" stroke="none" /><path d="M 119.41010516605496 108.01547362559984 l 17.663315104898796 7.29413030752533 a40.11012918423383,40.11012918423383 0 0,0 -0.2690224923737652,0.635889704012024 l -17.53514163133272 -7.5970945372035175" fill="red" stroke="none" /><path d="M 119.12269723197855 108.67885076344098 l 26.066937072119835 11.830499325723423 a49.62596588095846,49.62596588095846 0 0,0 -0.35973007956773134,0.7748265882986527 l -25.859432375712274 -12.277445981300907" fill="red" stroke="none" /><line stroke="#e1ed5e" stroke-width="0.3" x1="174.80103733775053" x2="179.2010983576182" y1="140.37084112569926" y2="142.7455964860345" /><path d="M 175.68104954172406 140.8457921977663 a86.0,86.0 0 0,1 -30.038265399797805,32.042727171017184" fill="none" id="id65" stroke="none" /><text fill="#e1ed5e" style="font-size:6.75px; font-family:Arial;" text-anchor="middle"><textPath startOffset="22.206326154141568" xlink:href="#id65">May</textPath></text><path d="M 117.75023020441432 111.22182372390056 l 24.11936935636813 15.24843949243544 a49.535221833785954,49.535221833785954 0 0,0 -0.4618455012663924,0.7167944742088946 l -23.853318991724684 -15.661355566565787" fill="red" stroke="none" /><path d="M 116.71984013943494 112.70617746262583 l 25.37665784910231 19.28489240028869 a52.8729013188495,52.8729013188495 0 0,0 -0.5569107297919671,0.7198821905779761 l -25.040940302092274 -19.718852584979917" fill="red" stroke="none" /><line stroke="#e1ed5e" stroke-width="0.3" x1="143.8653032363475" x2="146.44561519142675" y1="172.8068346515853" y2="177.08958963109032" /><path d="M 144.38136562736335 173.6633856474863 a86.0,86.0 0 0,1 -40.68145358897372,12.25698825130547" fill="none" id="id66" stroke="none" /><text fill="#e1ed5e" style="font-size:6.75px; font-family:Arial;" text-anchor="middle"><textPath startOffset="21.466115282336833" xlink:href="#id66">June</textPath></text><path d="M 108.92500713936063 119.00905698771935 l 8.229073785472991 17.526813155626186 a40.362511065432344,40.362511065432344 0 0,0 -0.631446507437438,0.2898661210691044 l -7.926159282268134 -17.665866347029365" fill="red" stroke="none" /><path d="M 106.57524785965236 119.94407469862006 l 8.909421881158691 27.02410301666461 a49.45487554201864,49.45487554201864 0 0,0 -0.8107741919191014,0.2595842928473912 l -8.442926344148649 -27.173460156171707" fill="red" stroke="none" /><path d="M 104.83641907484287 120.43548508189849 l 8.727236910893293 36.87548926982681 a58.894146948941476,58.894146948941476 0 0,0 -0.9885238151522724,0.22498480197142556 l -8.091192946348158 -37.02025080537592" fill="red" stroke="none" /><path d="M 104.13013068566511 120.58985236759428 l 7.447731947776357 37.12901913984734 a58.868625185674205,58.868625185674205 0 0,0 -0.9952508774549598,0.1907421993812954 l -6.807513455749693 -37.251718537577105" fill="red" stroke="none" /><path d="M 101.98527174616119 120.90594882070398 l 2.728367280249972 28.73113307298236 a49.86038800282074,49.86038800282074 0 0,0 -0.8551191456584454,0.07378327804112451 l -2.233403816849985 -28.773840603302148" fill="red" stroke="none" /><line stroke="#e1ed5e" stroke-width="0.3" x1="102.19456741930631" x2="102.32365962044197" y1="184.97166512339345" y2="189.96999836594603" /><path d="M 102.22038585953345 185.97133177190398 a86.0,86.0 0 0,1 -42.740103519485714,-10.115201625700543" fill="none" id="id67" stroke="none" /><text fill="#e1ed5e" style="font-size:6.75px; font-family:Arial;" text-anchor="middle"><textPath startOffset="22.20632615414155" xlink:href="#id67">July</textPath></text><line stroke="#e1ed5e" stroke-width="0.3" x1="58.666819895761336" x2="56.23545636021788" y1="174.27360380694188" y2="178.64263932499728" /><path d="M 58.180547188652646 175.14741091055294 a86.0,86.0 0 0,1 -31.652253787137756,-30.449443065178592" fill="none" id="id68" stroke="none" /><text fill="#e1ed5e" style="font-size:6.75px; font-family:Arial;" text-anchor="middle"><textPath startOffset="22.20632615414155" xlink:href="#id68">August</textPath></text><path d="M 83.06392112726016 112.41649034213515 l -15.286914565937314 11.207424604907924 a39.95510810364747,39.95510810364747 0 0,0 -0.40187267758606987,-0.5581660003893842 l 15.477567035898991 -10.942624999067402" fill="red" stroke="none" /><path d="M 82.05923443525364 110.91462005526583 l -8.090827928094667 4.922215412101082 a30.47046467313838,30.47046467313838 0 0,0 -0.26874822780126917,-0.45043748816410956 l 8.174357031594168 -4.782215830050861" fill="red" stroke="none" /><line stroke="#e1ed5e" stroke-width="0.3" x1="26.63291911575756" x2="22.317208475507996" y1="142.92168965132927" y2="145.44649492493687" /><path d="M 25.769776987707644 143.4266507060508 a86.0,86.0 0 0,1 -11.730757126820373,-40.83630448921669" fill="none" id="id69" stroke="none" /><text fill="#e1ed5e" style="font-size:6.75px; font-family:Arial;" text-anchor="middle"><textPath startOffset="21.46611528233685" xlink:href="#id69">September</textPath></text><path d="M 80.58989483394504 108.01547362559985 l -17.71049416290267 7.313613071367966 a40.161172710768355,40.161172710768355 0 0,0 -0.2583652115039211,-0.6412412665759478 l 17.833761988663976 -7.007672436949213" fill="red" stroke="none" /><path d="M 80.20201598880116 107.00284435728193 l -17.972621113798766 6.357186079205776 a40.06381191015619,40.06381191015619 0 0,0 -0.22437483942858366,-0.6521383109136917 l 18.07938678417058 -6.046875065202787" fill="red" stroke="none" /><path d="M 79.58551787078972 104.9243191809786 l -18.51849502693101 4.466974948803213 a40.04963315278549,40.04963315278549 0 0,0 -0.15588734993321723,-0.6715586235613051 l 18.592642942794782 -4.147547667893334" fill="red" stroke="none" /><path d="M 79.35854240842038 103.8639653848113 l -21.054602641425344 3.94130382684851 a42.42032138516707,42.42032138516707 0 0,0 -0.12817715757161166,-0.7188855699453252 l 21.119326241336143 -3.578299506169971" fill="red" stroke="none" /><line stroke="#e1ed5e" stroke-width="0.3" x1="15.007084014347285" x2="10.007500721073583" y1="101.09737516637583" y2="101.16192664675087" /><path d="M 14.007167355692545 101.11028546245083 a86.0,86.0 0 0,1 10.666146001902534,-42.60595125391555" fill="none" id="id70" stroke="none" /><text fill="#e1ed5e" style="font-size:6.75px; font-family:Arial;" text-anchor="middle"><textPath startOffset="22.20632615414155" xlink:href="#id70">October</textPath></text><path d="M 79.08570108090925 98.10471618934814 l -19.157345931829305 -1.7360662071493307 a40.23584749958739,40.23584749958739 0 0,0 0.06844476777603686,-0.6892294708784071 l 19.12462403837104 2.0655712087321683" fill="red" stroke="none" /><path d="M 79.81627453868168 94.20196356495316 l -18.392752567827994 -5.28355628565425 a40.13659619799247,40.13659619799247 0 0,0 0.1964669237696338,-0.6623887980116558 l 18.299079746946653 5.599374470412446" fill="red" stroke="none" /><path d="M 80.14247586403 93.16781622104843 l -18.0659999926282 -6.215791619086669 a40.10540293177692,40.10540293177692 0 0,0 0.23021822696699712,-0.6508579291555584 l 17.956328684851393 6.525847174668838" fill="red" stroke="none" /><path d="M 80.38941819471856 92.48833698450439 l -17.881058483829587 -6.849184130514849 a40.14793920388903,40.14793920388903 0 0,0 0.25275316770056444,-0.6432292426920408 l 17.760511766247333 7.155962378102653" fill="red" stroke="none" /><path d="M 80.95270993114464 91.15688171328213 l -21.511900633962245 -9.987367294274701 a44.717280079221,44.717280079221 0 0,0 0.3301451366650804,-0.6953698553236267 l 21.336797303455413 10.35617956523886" fill="red" stroke="none" /><path d="M 81.10775173730289 90.83032412892265 l -21.403977048661783 -10.388786403772752 a44.79195486804004,44.79195486804004 0 0,0 0.34263709760920336,-0.6907354807810491 l 21.221979938099167 10.755681473052762" fill="red" stroke="none" /><line stroke="#e1ed5e" stroke-width="0.3" x1="26.266209847984243" x2="21.928928074336255" y1="57.711370442889674" y2="55.22380399835377" /><path d="M 25.398753493254645 57.213857153982495 a86.0,86.0 0 0,1 29.58750427330803,-30.492523968695096" fill="none" id="id71" stroke="none" /><text fill="#e1ed5e" style="font-size:6.75px; font-family:Arial;" text-anchor="middle"><textPath startOffset="21.46611528233685" xlink:href="#id71">November</textPath></text><path d="M 81.78341655067845 89.55222093294921 l -24.703861700602836 -14.16843558337437 a49.478506804303144,49.478506804303144 0 0,0 0.4300867970847494,-0.7351577509014585 l 24.45631522904776 14.59157274662972" fill="red" stroke="none" /><path d="M 82.34701348167596 88.62581576622439 l -24.111984091218613 -15.535849926056837 a49.68362616093265,49.68362616093265 0 0,0 0.469399933235633,-0.7149283019962124 l 23.84098752262506 15.948596292030716" fill="red" stroke="none" /><path d="M 82.54541684631803 88.32363383020206 l -23.64300008299081 -15.816151201716277 a49.44542303710484,49.44542303710484 0 0,0 0.47932754357208535,-0.7033540242797371 l 23.367248073749984 16.22078324926643" fill="red" stroke="none" /><path d="M 83.39014120810768 87.1503855733568 l -26.246712002348364 -20.304816159060294 a54.18396375039386,54.18396375039386 0 0,0 0.5770486852390371,-0.7327932300421048 l 25.893309236515357 20.753601783055444" fill="red" stroke="none" /><path d="M 83.84228863543731 86.58626213691792 l -25.618781203771434 -21.268087273345415 a54.2964485588681,54.2964485588681 0 0,0 0.6031802463869647,-0.7139751588787864 l 25.248890343897344 21.70592138185332" fill="red" stroke="none" /><path d="M 84.5562425177563 85.77008943001954 l -24.46661562866882 -22.543591010564256 a54.269036294618076,54.269036294618076 0 0,0 0.6389085322476644,-0.6815430755926613 l 24.074939774450698 22.96140350303497" fill="red" stroke="none" /><path d="M 85.31137513191541 84.99185889309783 l -26.559592022798213 -27.13733303149488 a58.971657489234644,58.971657489234644 0 0,0 0.731576425137824,-0.7037759413553372 l 26.08853235404796 27.59049205961253" fill="red" stroke="none" /><path d="M 85.83668400450813 84.49514656593479 l -25.700269669144202 -28.13457770502804 a59.105883059010644,59.105883059010644 0 0,0 0.7570872910148227,-0.6797204450627696 l 25.21217139053341 28.572797158860087" fill="red" stroke="none" /><path d="M 86.65592168130627 83.78471172551755 l -24.088775269150865 -29.27189318285879 a58.90927095680355,58.90927095680355 0 0,0 0.7885331361428789,-0.6376056239569745 l 23.581338734443484 29.6822049040799" fill="red" stroke="none" /><path d="M 88.39885842347998 82.49532879139004 l -23.63535252005804 -35.66278991031091 a63.783927740851325,63.783927740851325 0 0,0 0.9204111109747758,-0.5986609894786799 l 23.017974383298977 36.06434982394913" fill="red" stroke="none" /><line stroke="#e1ed5e" stroke-width="0.3" x1="56.762969772571076" x2="54.21961505331055" y1="26.818313649435495" y2="22.513508569990535" /><path d="M 56.25429882871897 25.957352633546506 a86.0,86.0 0 0,1 42.265352541879196,-11.944610805530505" fill="none" id="id72" stroke="none" /><text fill="#e1ed5e" style="font-size:6.75px; font-family:Arial;" text-anchor="middle"><textPath startOffset="22.20632615414155" xlink:href="#id72">December</textPath></text><path d="M 89.3179101791058 81.91981866633112 l -24.143968773712203 -40.86534946460632 a68.46480817416615,68.46480817416615 0 0,0 1.0198102718102016,-0.590739933630801 l 23.43696176943668 41.274893555627166" fill="red" stroke="none" /><path d="M 90.26544431104013 81.39251694778311 l -22.24375697535063 -42.51866691829393 a68.98564119491665,68.98564119491665 0 0,0 1.0569241219728085,-0.5413975864300868 l 21.50857236578906 42.89525703003652" fill="red" stroke="none" /><path d="M 90.58718382345135 81.22770947309562 l -21.289525149929457 -42.45840392485522 a68.49694669087309,68.49694669087309 0 0,0 1.0585346344401638,-0.5194183479543426 l 20.555519248478866 42.818577432944394" fill="red" stroke="none" /><path d="M 91.23893434514133 80.91482961587045 l -21.80098692842588 -47.49143157492989 a73.25628291497247,73.25628291497247 0 0,0 1.1505348590483262,-0.5162114539688226 l 20.980269950910778 47.859663359415244" fill="red" stroke="none" /><path d="M 92.23578459929587 80.48803036053334 l -19.841158949609568 -49.86210081208004 a74.664706147129,74.664706147129 0 0,0 1.1982506167587916,-0.464902623362148 l 18.9799251678511 50.196246139332736" fill="red" stroke="none" /><path d="M 92.91201910852362 80.23233633223022 l -18.175599787236926 -50.68991424428769 a74.8499752434395,74.8499752434395 0 0,0 1.2165544545715943,-0.4244319615271426 l 17.300363328602046 50.99526705898705" fill="red" stroke="none" /><path d="M 93.25333710446033 80.11325718540243 l -18.057134650108075 -53.22595753119118 a77.20553946795903,77.20553946795903 0 0,0 1.2621899008281892,-0.416124165663572 l 17.138261927037476 53.52889542111398" fill="red" stroke="none" /><path d="M 93.94186890950719 79.89281104454417 l -16.308115494617578 -54.12731333468028 a77.53070563699382,77.53070563699382 0 0,0 1.281138727754416,-0.3739995257685681 l 15.373986549139742 54.400011189367554" fill="red" stroke="none" /><path d="M 94.28887869178378 79.79150937346287 l -15.31897387258233 -54.205351839906385 a77.32842203183844,77.32842203183844 0 0,0 1.2840278088333745,-0.35097330458564713 l 14.383648174525232 54.461011685318326" fill="red" stroke="none" /><path d="M 95.33964822691252 79.52364482259891 l -12.626561265391008 -55.47777629843476 a77.89651757715794,77.89651757715794 0 0,0 1.3099867593084034,-0.2863123667759303 l 11.669731781929084 55.686902163306556" fill="red" stroke="none" /><path d="M 96.04723909329186 79.375362276772 l -11.60776940304637 -60.56678973583034 a82.66908730813667,82.66908730813667 0 0,0 1.39988241813068,-0.25581956409015355 l 10.563491863812798 60.75762478127123" fill="red" stroke="none" /><path d="M 96.40284397218896 79.31037775812273 l -10.536937815504748 -60.604894895706494 a82.5140662275503,82.5140662275503 0 0,0 1.4014455955280443,-0.23125053131135473 l 9.49216301383782 60.77729168995747" fill="red" stroke="none" /><path d="M 97.47563105711357 79.15227682838746 l -7.573106828659279 -62.54316951483762 a84.0,84.0 0 0,0 1.436933185961128,-0.16145618611760604 l 6.495406939188433 62.66426165442583" fill="red" stroke="none" /><path d="M 99.27714615592234 79.0124445844662 l -1.6333922111303716 -47.4243995895758 a68.45251991777822,68.45251991777822 0 0,0 1.1779484500989086,-0.030422933179613844 l 0.816817125836584 47.44548931489777" fill="red" stroke="none" /></svg>