<?xml version="1.0" encoding="utf-8" ?>
<svg baseProfile="full" height="200mm" version="1.1" viewBox="0,0,200,200" width="200mm" xmlns="http://www.w3.org/2000/svg" xmlns:ev="http://www.w3.org/2001/xml-events" xmlns:xlink="http://www.w3.org/1999/xlink"><defs /><rect fill="#1a1a1a" height="200" width="200" x="0" y="0" /><text alignment-baseline="middle" fill="#e1ed5e" style="dominant-baseline: central; font-size:9.0px; font-family:Arial;" text-anchor="middle" x="100.0" y="100.0">2018</text><line stroke="#e1ed5e" stroke-width="0.3" x1="100.0" x2="100.0" y1="15.0" y2="10.0" /><path d="M 100.0 14.0 a86.0,86.0 0 0,1 42.46469731375804,11.215312516191453" fill="none" id="id25" stroke="none" /><text fill="#e1ed5e" style="font-size:6.75px; font-family:Arial;" text-anchor="middle"><textPath startOffset="22.20632615414155" xlink:href="#id25">January</textPath></text><line stroke="#e1ed5e" stroke-width="0.3" x1="143.23703022742887" x2="145.7803849466894" y1="26.81831364943548" y2="22.513508569990506" /><path d="M 143.74570117128098 25.957352633546492 a86.0,86.0 0 0,1 28.547481713284135,27.462654790039103" fill="none" id="id26" stroke="none" /><text fill="#e1ed5e" style="font-size:6.75px; font-family:Arial;" text-anchor="middle"><textPath startOffset="19.985693538727396" xlink:href="#id26">February</textPath></text><line stroke="#e1ed5e" stroke-width="0.3" x1="172.23445277983987" x2="176.4835382374775" y1="55.19839476539836" y2="52.563006222186495" /><path d="M 173.08426987136738 54.67131705675599 a86.0,86.0 0 0,1 12.851231095245387,41.99856678651699" fill="none" id="id27" stroke="none" /><text fill="#e1ed5e" style="font-size:6.75px; font-family:Arial;" text-anchor="middle"><textPath startOffset="22.20632615414155" xlink:href="#id27">March</textPath></text><line stroke="#e1ed5e" stroke-width="0.3" x1="184.98032266829074" x2="189.97916517819016" y1="98.17113171792111" y2="98.06355123074" /><path d="M 185.9800911702706 98.14961562048488 a86.0,86.0 0 0,1 -9.607161424134198,41.387399972396054" fill="none" id="id28" stroke="none" /><text fill="#e1ed5e" style="font-size:6.75px; font-family:Arial;" text-anchor="middle"><textPath startOffset="21.466115282336823" xlink:href="#id28">April</textPath></text><path d="M 120.49622156327973 104.57218783832717 l 24.531326328678915 5.472317497726786 a46.13428396115676,46.13428396115676 0 0,0 -0.17957096486591081,0.773587016833557 l -24.43349479788245 -5.893773171908909" fill="red" stroke="none" /><path d="M 120.32669344350535 105.2749913415812 l 41.36783621503914 10.735389819341401 a63.738114929036385,63.738114929036385 0 0,0 -0.28473310342103764,1.0595978011440739 l -41.17691503527632 -11.445878553661023" fill="red" stroke="none" /><path d="M 119.54520255179757 107.68017299344265 l 23.384476012177615 9.188793038014154 a46.12504001707396,46.12504001707396 0 0,0 -0.29673201540856425,0.7364645274285915 l -23.22284138251166 -9.589956933285558" fill="red" stroke="none" /><line stroke="#e1ed5e" stroke-width="0.3" x1="174.80103733775053" x2="179.2010983576182" y1="140.37084112569926" y2="142.7455964860345" /><path d="M 175.68104954172406 140.8457921977663 a86.0,86.0 0 0,1 -30.038265399797805,32.042727171017184" fill="none" id="id29" stroke="none" /><text fill="#e1ed5e" style="font-size:6.75px; font-family:Arial;" text-anchor="middle"><textPath startOffset="22.206326154141568" xlink:href="#id29">May</textPath></text><line stroke="#e1ed5e" stroke-width="0.3" x1="143.8653032363475" x2="146.44561519142675" y1="172.8068346515853" y2="177.08958963109032" /><path d="M 144.38136562736335 173.6633856474863 a86.0,86.0 0 0,1 -40.68145358897372,12.25698825130547" fill="none" id="id30" stroke="none" /><text fill="#e1ed5e" style="font-size:6.75px; font-family:Arial;" text-anchor="middle"><textPath startOffset="21.466115282336833" xlink:href="#id30">June</textPath></text><path d="M 107.93186726928326 119.44442032107085 l 6.301543094270112 15.4477941241951 a37.68363835236367,37.68363835236367 0 0,0 -0.6027209476485414,0.23983510381209006 l -6.034701070579704 -15.55397607241326" fill="red" stroke="none" /><path d="M 107.2578585660854 119.70592522655815 l 5.811088765482742 15.777777929235487 a37.81389392807598,37.81389392807598 0 0,0 -0.6127299257212522,0.21970315147707958 l -5.538639279131755 -15.875468621752526" fill="red" stroke="none" /><path d="M 104.83641907484287 120.43548508189849 l 5.8023094065650325 24.51669416639034 a46.193949418418526,46.193949418418526 0 0,0 -0.7753541138075166,0.1764680719663219 l -5.379435143364654 -24.612938971934344" fill="red" stroke="none" /><path d="M 103.06178313531738 120.77559828337769 l 4.903149510823184 33.27011093149911 a54.629468573257924,54.629468573257924 0 0,0 -0.931488132130535,0.12909576737410175 l -4.329732787505818 -33.34958126436582" fill="red" stroke="none" /><line stroke="#e1ed5e" stroke-width="0.3" x1="102.19456741930631" x2="102.32365962044197" y1="184.97166512339345" y2="189.96999836594603" /><path d="M 102.22038585953345 185.97133177190398 a86.0,86.0 0 0,1 -42.740103519485714,-10.115201625700543" fill="none" id="id31" stroke="none" /><text fill="#e1ed5e" style="font-size:6.75px; font-family:Arial;" text-anchor="middle"><textPath startOffset="22.20632615414155" xlink:href="#id31">July</textPath></text><line stroke="#e1ed5e" stroke-width="0.3" x1="58.666819895761336" x2="56.23545636021788" y1="174.27360380694188" y2="178.64263932499728" /><path d="M 58.180547188652646 175.14741091055294 a86.0,86.0 0 0,1 -31.652253787137756,-30.449443065178592" fill="none" id="id32" stroke="none" /><text fill="#e1ed5e" style="font-size:6.75px; font-family:Arial;" text-anchor="middle"><textPath startOffset="22.20632615414155" xlink:href="#id32">August</textPath></text><path d="M 84.19399662182784 113.82643327865904 l -12.763419412341383 11.164907579102847 a37.95759524063601,37.95759524063601 0 0,0 -0.4259519827207826,-0.49547838648645876 l 12.953713904632945 -10.943552093454857" fill="red" stroke="none" /><path d="M 83.72743513129214 113.27417163493432 l -14.923101954014161 12.173361621936957 a40.25849695870238,40.25849695870238 0 0,0 -0.4334154785693555,-0.5407524501916299 l 15.130435344638377 -11.914681338167068" fill="red" stroke="none" /><path d="M 83.50135304334701 112.99209946851258 l -15.829616346949848 12.465261585892287 a41.14843666631096,41.14843666631096 0 0,0 -0.43341684155819304,-0.5602496928921624 l 16.041840005726108 -12.190933898886874" fill="red" stroke="none" /><path d="M 83.06392112726016 112.41649034213515 l -17.173059274211184 12.590229782548382 a42.29384537402625,42.29384537402625 0 0,0 -0.4253959429112275,-0.5908377585231018 l 17.38723500949802 -12.292758418574143" fill="red" stroke="none" /><line stroke="#e1ed5e" stroke-width="0.3" x1="26.63291911575756" x2="22.317208475507996" y1="142.92168965132927" y2="145.44649492493687" /><path d="M 25.769776987707644 143.4266507060508 a86.0,86.0 0 0,1 -11.730757126820373,-40.83630448921669" fill="none" id="id33" stroke="none" /><text fill="#e1ed5e" style="font-size:6.75px; font-family:Arial;" text-anchor="middle"><textPath startOffset="21.46611528233685" xlink:href="#id33">September</textPath></text><path d="M 81.87401531095188 110.60418214915194 l -19.525666224702004 11.423032998333465 a43.621611887738766,43.621611887738766 0 0,0 -0.37358380107740713,-0.6513748466507729 l 19.71940202193179 -11.085238305824385" fill="red" stroke="none" /><path d="M 81.51974371655577 109.97397251340807 l -22.9726289025549 12.398549333976163 a47.10489808985167,47.10489808985167 0 0,0 -0.3789644944096569,-0.7168580069245148 l 23.182645905189442 -12.001276311965523" fill="red" stroke="none" /><path d="M 81.35079622478065 109.6543875284942 l -23.605790388457606 12.220331284566743 a47.5813813893928,47.5813813893928 0 0,0 -0.37027679238388306,-0.7305912395418075 l 23.812645850627757 -11.81218583332225" fill="red" stroke="none" /><path d="M 81.02952815118164 109.00673069616217 l -26.71802996155009 12.685087778175784 a50.576419272222815,50.576419272222815 0 0,0 -0.3666197525039853,-0.7896663308692499 l 26.932424330893905 -12.223301380027708" fill="red" stroke="none" /><path d="M 80.87730276802145 108.67885076344099 l -27.3992173083579 12.435155729844924 a51.089037989542206,51.089037989542206 0 0,0 -0.3565501899937971,-0.803926551934861 l 27.609208583082978 -11.961680841417367" fill="red" stroke="none" /><path d="M 80.73074385275274 108.34839909993369 l -28.95631896975092 12.54531598818335 a52.55714438160281,52.55714438160281 0 0,0 -0.3525058198801444,-0.8332196296608234 l 29.16797577082337 -12.045021832856369" fill="red" stroke="none" /><path d="M 80.58989483394504 108.01547362559985 l -29.739653182607732 12.281098102268981 a53.17564827659802,53.17564827659802 0 0,0 -0.3420900508255731,-0.8490394515481883 l 29.946645847690693 -11.767359282877988" fill="red" stroke="none" /><path d="M 80.45479744820244 107.68017299344265 l -32.37597832791758 12.721951268163691 a55.78580194216199,55.78580194216199 0 0,0 -0.3434963480278607,-0.8967605733803304 l 32.59016895553895 -12.162767127950202" fill="red" stroke="none" /><path d="M 80.32549172779594 107.34259656027581 l -35.022976175730655 13.070699447256528 a58.38250987087824,58.38250987087824 0 0,0 -0.3432773119369748,-0.9445517307115711 l 35.24277774867285 -12.46589991953884" fill="red" stroke="none" /><path d="M 80.0844068197444 106.66101706037122 l -59.746779540766816 19.983051181113673 a84.0,84.0 0 0,0 -0.44683099593500275,-1.3752044000887864 l 60.081902787718064 -18.951647881047084" fill="red" stroke="none" /><path d="M 79.58551787078972 104.9243191809786 l -40.88151994952795 9.86131568564103 a63.05406306690855,63.05406306690855 0 0,0 -0.24542873480324706,-1.0573005660656278 l 41.04520925026175 -9.156146462226827" fill="red" stroke="none" /><path d="M 79.4281124754447 104.21870165774334 l -41.24365989409695 8.457886820494398 a63.101963504428554,63.101963504428554 0 0,0 -0.2090479919223878,-1.0659312070597582 l 41.383137818995 -7.746691886366686" fill="red" stroke="none" /><path d="M 79.29508885075956 103.50808413554451 l -41.610607572271 7.0501878149816255 a63.20364688933946,63.20364688933946 0 0,0 -0.17251057893644764,-1.0742235397114837 l 41.72579990556874 -6.332885045576928" fill="red" stroke="none" /><path d="M 79.07016306316243 101.71520430193888 l -41.82645102398615 3.427685984734516 a62.96666577739835,62.96666577739835 0 0,0 -0.07922838091768993,-1.081008310380104 l 41.87925596356818 -2.7072045378576512" fill="red" stroke="none" /><path d="M 79.0095281055655 100.63252640178507 l -8.403972547106118 0.25324511724441146 a29.40778732259097,29.40778732259097 0 0,0 -0.010891996493702143,-0.5061082777839199 l 8.407086606284828 -0.10854702367036277" fill="red" stroke="none" /><line stroke="#e1ed5e" stroke-width="0.3" x1="15.007084014347285" x2="10.007500721073583" y1="101.09737516637583" y2="101.16192664675087" /><path d="M 14.007167355692545 101.11028546245083 a86.0,86.0 0 0,1 10.666146001902534,-42.60595125391555" fill="none" id="id34" stroke="none" /><text fill="#e1ed5e" style="font-size:6.75px; font-family:Arial;" text-anchor="middle"><textPath startOffset="22.20632615414155" xlink:href="#id34">October</textPath></text><path d="M 79.03285615573316 98.82574320788736 l -41.9505092009519 -2.349422063762459 a63.01624693202433,63.01624693202433 0 0,0 0.06997626836070327,-1.0825018993105586 l 41.903852341586784 3.0711830273260294" fill="red" stroke="none" /><line stroke="#e1ed5e" stroke-width="0.3" x1="26.266209847984243" x2="21.928928074336255" y1="57.711370442889674" y2="55.22380399835377" /><path d="M 25.398753493254645 57.213857153982495 a86.0,86.0 0 0,1 29.58750427330803,-30.492523968695096" fill="none" id="id35" stroke="none" /><text fill="#e1ed5e" style="font-size:6.75px; font-family:Arial;" text-anchor="middle"><textPath startOffset="21.46611528233685" xlink:href="#id35">November</textPath></text><line stroke="#e1ed5e" stroke-width="0.3" x1="56.762969772571076" x2="54.21961505331055" y1="26.818313649435495" y2="22.513508569990535" /><path d="M 56.25429882871897 25.957352633546506 a86.0,86.0 0 0,1 42.265352541879196,-11.944610805530505" fill="none" id="id36" stroke="none" /><text fill="#e1ed5e" style="font-size:6.75px; font-family:Arial;" text-anchor="middle"><textPath startOffset="22.20632615414155" xlink:href="#id36">December</textPath></text></svg>