<?xml version="1.0" encoding="utf-8" ?>
<svg baseProfile="full" height="200mm" version="1.1" viewBox="0,0,200,200" width="200mm" xmlns="http://www.w3.org/2000/svg" xmlns:ev="http://www.w3.org/2001/xml-events" xmlns:xlink="http://www.w3.org/1999/xlink"><defs /><rect fill="#1a1a1a" height="200" width="200" x="0" y="0" /><text alignment-baseline="middle" fill="#e1ed5e" style="dominant-baseline: central; font-size:9.0px; font-family:Arial;" text-anchor="middle" x="100.0" y="100.0">2020</text><line stroke="#e1ed5e" stroke-width="0.3" x1="100.0" x2="100.0" y1="15.0" y2="10.0" /><path d="M 100.0 14.0 a86.0,86.0 0 0,1 42.35913384403234,11.155469271406648" fill="none" id="id49" stroke="none" /><text fill="#e1ed5e" style="font-size:6.75px; font-family:Arial;" text-anchor="middle"><textPath startOffset="22.145653131862478" xlink:href="#id49">January</textPath></text><path d="M 103.94208987418118 79.37332000966035 l 3.6025076362773207 -18.84984222783149 a40.19100344650002,40.19100344650002 0 0,0 0.6765552842083419,0.1353300048774821 l -3.9255594060166197 18.78522282629115" fill="red" stroke="none" /><path d="M 106.72888874123014 80.10723608172694 l 8.014129681920267 -23.692350387074438 a46.01107237650041,46.01107237650041 0 0,0 0.7460240269627282,0.25950588245108275 l -8.419659480928013 23.551286072054765" fill="red" stroke="none" /><line stroke="#e1ed5e" stroke-width="0.3" x1="143.13028292997686" x2="145.6673583964461" y1="26.7553504044142" y2="22.446841604673864" /><path d="M 143.63769802327073 25.89364864446614 a86.0,86.0 0 0,1 29.32050498858742,28.57503671076993" fill="none" id="id50" stroke="none" /><text fill="#e1ed5e" style="font-size:6.75px; font-family:Arial;" text-anchor="middle"><textPath startOffset="20.669276256404974" xlink:href="#id50">February</textPath></text><line stroke="#e1ed5e" stroke-width="0.3" x1="172.87174338648825" x2="177.1583165268699" y1="56.24261187166439" y2="53.66864786411523" /><path d="M 173.72905801456457 55.72781907015455 a86.0,86.0 0 0,1 12.242430191666344,42.057860355516425" fill="none" id="id51" stroke="none" /><text fill="#e1ed5e" style="font-size:6.75px; font-family:Arial;" text-anchor="middle"><textPath startOffset="22.145653131862474" xlink:href="#id51">March</textPath></text><line stroke="#e1ed5e" stroke-width="0.3" x1="184.99686870605535" x2="189.99668451229388" y1="99.2704041080226" y2="99.22748670261217" /><path d="M 185.99683186730306 99.26182062694052 a86.0,86.0 0 0,1 -10.086455211305974,41.156179273409016" fill="none" id="id52" stroke="none" /><text fill="#e1ed5e" style="font-size:6.75px; font-family:Arial;" text-anchor="middle"><textPath startOffset="21.40746469413373" xlink:href="#id52">April</textPath></text><line stroke="#e1ed5e" stroke-width="0.3" x1="174.33088141563837" x2="178.70328620479359" y1="141.23008692659167" y2="143.65538615756765" /><path d="M 175.20536237346943 141.71514677278685 a86.0,86.0 0 0,1 -30.301960400862466,31.631185727798858" fill="none" id="id53" stroke="none" /><text fill="#e1ed5e" style="font-size:6.75px; font-family:Arial;" text-anchor="middle"><textPath startOffset="22.145653131862474" xlink:href="#id53">May</textPath></text><line stroke="#e1ed5e" stroke-width="0.3" x1="143.1302829299769" x2="145.66735839644613" y1="173.24464959558577" y2="177.55315839532614" /><path d="M 143.63769802327073 174.10635135553383 a86.0,86.0 0 0,1 -40.68552437913181,11.842963189579606" fill="none" id="id54" stroke="none" /><text fill="#e1ed5e" style="font-size:6.75px; font-family:Arial;" text-anchor="middle"><textPath startOffset="21.407464694133747" xlink:href="#id54">June</textPath></text><line stroke="#e1ed5e" stroke-width="0.3" x1="101.45913802915013" x2="101.54496967792366" y1="184.9874750549273" y2="189.98673829345242" /><path d="M 101.47630435890484 185.9873277026323 a86.0,86.0 0 0,1 -42.54439059252881,-10.42667462771756" fill="none" id="id55" stroke="none" /><text fill="#e1ed5e" style="font-size:6.75px; font-family:Arial;" text-anchor="middle"><textPath startOffset="22.145653131862474" xlink:href="#id55">July</textPath></text><path d="M 100.36049292484886 120.99690560180557 l 0.32442649527607087 18.896216892168834 a39.899001703442536,39.899001703442536 0 0,0 -0.6849194201249208,0.005879209468137524 l -2.314460194320128e-15 -18.899001703442536" fill="red" stroke="none" /><path d="M 99.63950707515114 120.99690560180557 l -0.43020517032877115 25.057294410394633 a46.06098720437349,46.06098720437349 0 0,0 -0.7904650728197158,-0.02035957630318301 l 0.8602835572192309 -25.046217116741403" fill="red" stroke="none" /><path d="M 98.55909050195518 120.95050786540614 l -2.5845097570702515 37.578204645879104 a58.66697698371826,58.66697698371826 0 0,0 -1.0041300243217115,-0.07772601444461115 l 3.2292087761671993 -37.52830086443944" fill="red" stroke="none" /><path d="M 97.48249496171623 120.84855314841334 l -3.032764309380434 25.115639066936396 a46.29808263677059,46.29808263677059 0 0,0 -0.7882186355513443,-0.10205068305896305 l 3.463460766822572 -25.059876787677034" fill="red" stroke="none" /><path d="M 96.05791012581884 120.62667999033965 l -9.38469753769284 49.10470311292107 a70.99344372697382,70.99344372697382 0 0,0 -1.1950681838926382,-0.23904710661502435 l 10.226262207116436 -48.93636660964319" fill="red" stroke="none" /><path d="M 95.00130118170881 120.39639698878247 l -8.949657057111684 36.51765487097506 a58.59834409539278,58.59834409539278 0 0,0 -0.9749500596518154,-0.24782849265094262 l 9.575212409988879 -36.35864114648885" fill="red" stroke="none" /><path d="M 93.27111125876986 119.89276391827306 l -12.077772846983162 35.70578934251213 a58.69318226835162,58.69318226835162 0 0,0 -0.9516518944134857,-0.3310339288286181 l 12.688930513441669 -35.49319698111493" fill="red" stroke="none" /><path d="M 92.25597844496254 119.51999308798841 l -23.232064665112382 58.55997926396522 a84.0,84.0 0 0,0 -1.3357821552382365,-0.5432509736828348 l 24.233901281541062 -58.152541033703095" fill="red" stroke="none" /><path d="M 91.92203290615298 119.3841803445677 l -19.346415981682664 46.42435554059283 a71.29418056490908,71.29418056490908 0 0,0 -1.1256499818947518,-0.4804730419854512 l 20.140501038747846 -46.08540784894797" fill="red" stroke="none" /><line stroke="#e1ed5e" stroke-width="0.3" x1="58.13341422392154" x2="55.67067388415222" y1="173.97424548756322" y2="178.32567169271397" /><path d="M 57.64086615596768 174.84453072859336 a86.0,86.0 0 0,1 -31.369924170532247,-30.572349798747897" fill="none" id="id56" stroke="none" /><text fill="#e1ed5e" style="font-size:6.75px; font-family:Arial;" text-anchor="middle"><textPath startOffset="22.145653131862474" xlink:href="#id56">August</textPath></text><path d="M 88.4268655584334 117.5232005979908 l -20.67168214033893 31.299561469021434 a58.50974527591808,58.50974527591808 0 0,0 -0.8333562854536088,-0.5607193003625395 l 21.205934713889544 -30.94009249460177" fill="red" stroke="none" /><path d="M 86.96720088162412 116.46651593811092 l -23.322272240812673 29.466929097742558 a58.579626034940375,58.579626034940375 0 0,0 -0.7831516610564931,-0.6308515417497959 l 23.82467467222443 -29.062229262199352" fill="red" stroke="none" /><path d="M 86.68645165197938 116.24036423190432 l -15.84777961261829 19.331714314473764 a45.99734579883532,45.99734579883532 0 0,0 -0.6063450417880122,-0.5058345992682638 l 16.177298988568193 -19.056817531293632" fill="red" stroke="none" /><path d="M 86.13680546590413 115.77377054828092 l -24.699530268735668 28.10353141558691 a58.41490710295924,58.41490710295924 0 0,0 -0.7475299282585253,-0.6684458713470509 l 25.178325223817563 -27.675390014356477" fill="red" stroke="none" /><path d="M 84.58840730492382 114.26474011684316 l -27.52693736255199 25.478522269465085 a58.50849740522125,58.50849740522125 0 0,0 -0.6759188567044563,-0.742953227073992 l 27.960253920098328 -25.00223146683342" fill="red" stroke="none" /><path d="M 84.3458050057657 113.99807769240083 l -27.9844393816035 25.023858255646303 a58.540942043338745,58.540942043338745 0 0,0 -0.6634331672264708,-0.754865159556971 l 28.409883612788565 -24.539780818278032" fill="red" stroke="none" /><path d="M 81.99639281039703 110.81064883170644 l -32.16942131628737 19.31681319788137 a58.52347185358317,58.52347185358317 0 0,0 -0.5097848369762286,-0.8657261027962098 l 32.49627986339337 -18.7617359267916" fill="red" stroke="none" /><line stroke="#e1ed5e" stroke-width="0.3" x1="26.387840678322732" x2="22.057713659400548" y1="142.50000000000003" y2="145.00000000000006" /><path d="M 25.521815274538298 143.00000000000003 a86.0,86.0 0 0,1 -11.493303480769221,-40.785679425670985" fill="none" id="id57" stroke="none" /><text fill="#e1ed5e" style="font-size:6.75px; font-family:Arial;" text-anchor="middle"><textPath startOffset="21.40746469413373" xlink:href="#id57">September</textPath></text><path d="M 80.9802524753101 108.90220220490708 l -45.29499791310444 21.200346101853636 a71.01091391672938,71.01091391672938 0 0,0 -0.5072733453499859,-1.1084838078527701 l 45.65225572330948 -20.419673311786177" fill="red" stroke="none" /><line stroke="#e1ed5e" stroke-width="0.3" x1="15.003131293944662" x2="10.003315487706104" y1="100.72959589197737" y2="100.7725132973878" /><path d="M 14.003168132696942 100.73817937305945 a86.0,86.0 0 0,1 10.791469493833604,-42.45332614584628" fill="none" id="id58" stroke="none" /><text fill="#e1ed5e" style="font-size:6.75px; font-family:Arial;" text-anchor="middle"><textPath startOffset="22.145653131862435" xlink:href="#id58">October</textPath></text><path d="M 80.68587082218212 91.75594674310238 l -32.03094112568153 -13.672104089059664 a55.82682327774037,55.82682327774037 0 0,0 0.38378579790150585,-0.8781770120265339 l 31.791521445763046 14.219943170862065" fill="red" stroke="none" /><line stroke="#e1ed5e" stroke-width="0.3" x1="26.387840678322718" x2="22.05771365940052" y1="57.49999999999999" y2="54.99999999999999" /><path d="M 25.521815274538284 56.99999999999999 a86.0,86.0 0 0,1 29.574782752854787,-30.34633250058573" fill="none" id="id59" stroke="none" /><text fill="#e1ed5e" style="font-size:6.75px; font-family:Arial;" text-anchor="middle"><textPath startOffset="21.40746469413373" xlink:href="#id59">November</textPath></text><path d="M 85.34317274990677 84.96080404539775 l -26.19625539921785 -26.879665803739236 a58.53345481915779,58.53345481915779 0 0,0 0.7256127993708141,-0.6951206477716675 l 25.730970113981737 27.325398581816472" fill="red" stroke="none" /><path d="M 85.86807049272753 84.46653392183569 l -25.248864506704532 -27.752925042912864 a58.519728241492686,58.519728241492686 0 0,0 0.7488713142514254,-0.6696453469732989 l 24.768728165629714 28.182265919769563" fill="red" stroke="none" /><line stroke="#e1ed5e" stroke-width="0.3" x1="56.869717070023135" x2="54.33264160355391" y1="26.7553504044142" y2="22.446841604673864" /><path d="M 56.362301976729285 25.89364864446614 a86.0,86.0 0 0,1 42.16139366436587,-11.88097634709845" fill="none" id="id60" stroke="none" /><text fill="#e1ed5e" style="font-size:6.75px; font-family:Arial;" text-anchor="middle"><textPath startOffset="22.145653131862474" xlink:href="#id60">December</textPath></text></svg>