<?xml version="1.0" encoding="utf-8" ?>
<svg baseProfile="full" height="200mm" version="1.1" viewBox="0,0,200,200" width="200mm" xmlns="http://www.w3.org/2000/svg" xmlns:ev="http://www.w3.org/2001/xml-events" xmlns:xlink="http://www.w3.org/1999/xlink"><defs /><rect fill="#1a1a1a" height="200" width="200" x="0" y="0" /><text alignment-baseline="middle" fill="#e1ed5e" style="dominant-baseline: central; font-size:9.0px; font-family:Arial;" text-anchor="middle" x="100.0" y="100.0">2024</text><line stroke="#e1ed5e" stroke-width="0.3" x1="100.0" x2="100.0" y1="15.0" y2="10.0" /><path d="M 100.0 14.0 a86.0,86.0 0 0,1 42.35913384403234,11.155469271406648" fill="none" id="id97" stroke="none" /><text fill="#e1ed5e" style="font-size:6.75px; font-family:Arial;" text-anchor="middle"><textPath startOffset="22.145653131862478" xlink:href="#id97">January</textPath></text><path d="M 101.08105385017728 79.02784411241856 l 0.694516699975381 -13.473438437894455 a34.49132672446548,34.49132672446548 0 0,0 0.5910427963925448,0.03555566694223957 l -0.9257038485003881 13.459530793127524" fill="#ff980e" stroke="none" /><path d="M 102.15924093988457 79.11130261209362 l 1.492681300219743 -14.44033752830923 a35.51728092293876,35.51728092293876 0 0,0 0.6059317441641847,0.06789591578626898 l -1.7403489459847243 14.41258585201599" fill="#ffa60f" stroke="none" /><path d="M 102.87502721639298 79.19773525538626 l 1.478477606910251 -10.69752746080651 a31.79921246243653,31.79921246243653 0 0,0 0.5400943212761158,0.0793752660581774 l -1.6618970337940489 10.67057112144945" fill="#ff730a" stroke="none" /><path d="M 103.94208987418118 79.37332000966035 l 2.7254899429928225 -14.26091506416485 a35.51902179544748,35.51902179544748 0 0,0 0.597909477866344,0.11959864100481653 l -2.9698959063901236 14.212027026497173" fill="#ffa60f" stroke="none" /><path d="M 104.64783097203109 79.52079915486377 l 3.0547797221445703 -13.459923100454294 a34.80221753998135,34.80221753998135 0 0,0 0.5814751958728216,0.1372265629511123 l -3.2853870717572766 13.405500393856954" fill="#ff9c0e" stroke="none" /><path d="M 105.3480935250658 79.69241777938227 l 4.4348295697889455 -16.839770228552172 a38.4139477047425,38.4139477047425 0 0,0 0.6362421654872147,0.17341063144677893 l -4.723253136210853 16.76115910296125" fill="#ffcc13" stroke="none" /><path d="M 106.04205211174951 79.88797359093562 l 3.2064970831868247 -10.673385933271632 a32.144630582708714,32.144630582708714 0 0,0 0.5271097449541341,0.16329994639324688 l -3.3892474610125887 10.616769399071739" fill="#ff780b" stroke="none" /><path d="M 107.06938296918511 80.22567764915836 l 7.331295171621922 -20.50693739534832 a42.77802493868951,42.77802493868951 0 0,0 0.6893594147649014,0.25314232572450795 l -7.682243738040947 20.37806422061509" fill="#faff18" stroke="none" /><path d="M 107.74402155503746 80.48000691201159 l 3.2080808303059074 -8.08645936587614 a29.69957514420918,29.69957514420918 0 0,0 0.47228764875942664,0.19207527517926049 l -3.3464229402557737 8.030196834117586" fill="#ff5507" stroke="none" /><path d="M 108.4095320186766 80.7573450057729 l 7.50052060286206 -17.16265898238176 a39.730047321336045,39.730047321336045 0 0,0 0.6226012417792004,0.27848161627974877 l -7.794035247496892 17.03137361519216" fill="#ffdd14" stroke="none" /><path d="M 109.3889696526874 81.21577127319529 l 10.031354063866388 -20.069427865420117 a43.436800110531586,43.436800110531586 0 0,0 0.6641130519695382,0.33910085632848674 l -10.374394337549505 19.894269057418796" fill="#f2ff19" stroke="none" /><line stroke="#e1ed5e" stroke-width="0.3" x1="143.13028292997686" x2="145.6673583964461" y1="26.7553504044142" y2="22.446841604673864" /><path d="M 143.63769802327073 25.89364864446614 a86.0,86.0 0 0,1 29.32050498858742,28.57503671076993" fill="none" id="id98" stroke="none" /><text fill="#e1ed5e" style="font-size:6.75px; font-family:Arial;" text-anchor="middle"><textPath startOffset="20.669276256404974" xlink:href="#id98">February</textPath></text><path d="M 113.31354834802062 83.75963576809568 l 8.456363436913458 -10.315388407572874 a34.33856516182515,34.33856516182515 0 0,0 0.4526569602308325,0.37762253552723035 l -8.632194731306184 10.168703688133773" fill="#ff960d" stroke="none" /><path d="M 113.86319453409587 84.22622945171908 l 7.937996906172984 -9.031983321231133 a33.02449656315844,33.02449656315844 0 0,0 0.42261129514628143,0.3779016260703666 l -8.09187322814264 8.894386165277378" fill="#ff840c" stroke="none" /><path d="M 114.39649973595853 84.71141617570332 l 15.301036125710473 -16.24917012447269 a43.31943628890194,43.31943628890194 0 0,0 0.5370114839431349,0.5144448539263047 l -15.57772009551892 15.984113140240806" fill="#f3ff19" stroke="none" /><path d="M 114.91283532996326 85.21462403516908 l 7.596578021904807 -7.531650394768418 a31.697371420676316,31.697371420676316 0 0,0 0.37978461991748597,0.38969247723424305 l -7.7247494429731045 7.400135225466433" fill="#ff710a" stroke="none" /><path d="M 115.41159269507618 85.73525988315684 l 12.873745055460752 -11.915746229480435 a38.54190183413353,38.54190183413353 0 0,0 0.44525495232797396,0.4894131897956317 l -13.076397708630603 11.692995464127131" fill="#ffce13" stroke="none" /><path d="M 115.8921839302757 86.27271002978787 l 4.302214166527681 -3.7161501299623687 a26.684964249939554,26.684964249939554 0 0,0 0.2964641539109169,0.3492340278585507 l -4.36537288394571 3.641749319654266" fill="#ff2904" stroke="none" /><path d="M 116.7966241395341 87.39550010848427 l 29.017298090358555 -21.77512145259857 a57.27891264550448,57.27891264550448 0 0,0 0.5834211302527558,0.7915228124602215 l -29.386821240195136 21.273792330869473" fill="#54ff2b" stroke="none" /><line stroke="#e1ed5e" stroke-width="0.3" x1="172.87174338648825" x2="177.1583165268699" y1="56.24261187166439" y2="53.66864786411523" /><path d="M 173.72905801456457 55.72781907015455 a86.0,86.0 0 0,1 12.242430191666344,42.057860355516425" fill="none" id="id99" stroke="none" /><text fill="#e1ed5e" style="font-size:6.75px; font-family:Arial;" text-anchor="middle"><textPath startOffset="22.145653131862474" xlink:href="#id99">March</textPath></text><path d="M 118.36410011445183 89.81374322990088 l 55.092300343355504 -30.558770310297362 a84.0,84.0 0 0,0 0.6886186015386349,1.2669806661015868 l -55.60876429450948 29.60853481072117" fill="#4dd2ff" stroke="none" /><path d="M 119.71291397450082 92.76114493625339 l 14.831497778749512 -5.446331422007139 a36.799868743739424,36.799868743739424 0 0,0 0.21266789586406784,0.5948699546795257 l -14.922805844657523 5.190926510946697" fill="#ffb711" stroke="none" /><path d="M 119.94978838288452 93.4421083053983 l 7.684020940815356 -2.525890307295204 a29.08852889364789,29.08852889364789 0 0,0 0.15186329204174062,0.4757095993543573 l -7.726248948634353 2.3936116742494598" fill="#ff4c07" stroke="none" /><path d="M 120.05942366710727 93.78553927170692 l 13.35655107011249 -4.137893663752741 a34.982833062761216,34.982833062761216 0 0,0 0.17278800866516048,0.5751550845921242 l -13.425615398781279 3.9080009755698937" fill="#ff9f0e" stroke="none" /><path d="M 120.99303781780057 99.45929381324524 l 30.909385763417305 -0.7961161341260468 a51.91963662740493,51.91963662740493 0 0,0 0.015300391554338096,0.8911711021006442 l -30.91849758657031 0.2653981160563362" fill="#8eff24" stroke="none" /><line stroke="#e1ed5e" stroke-width="0.3" x1="184.99686870605535" x2="189.99668451229388" y1="99.2704041080226" y2="99.22748670261217" /><path d="M 185.99683186730306 99.26182062694052 a86.0,86.0 0 0,1 -10.086455211305974,41.156179273409016" fill="none" id="id100" stroke="none" /><text fill="#e1ed5e" style="font-size:6.75px; font-family:Arial;" text-anchor="middle"><textPath startOffset="21.40746469413373" xlink:href="#id100">April</textPath></text><line stroke="#e1ed5e" stroke-width="0.3" x1="174.33088141563837" x2="178.70328620479359" y1="141.23008692659167" y2="143.65538615756765" /><path d="M 175.20536237346943 141.71514677278685 a86.0,86.0 0 0,1 -30.301960400862466,31.631185727798858" fill="none" id="id101" stroke="none" /><text fill="#e1ed5e" style="font-size:6.75px; font-family:Arial;" text-anchor="middle"><textPath startOffset="22.145653131862474" xlink:href="#id101">May</textPath></text><path d="M 117.423217284605 111.72311816256416 l 2.410880744780063 1.6221481592771232 a23.905806362474525,23.905806362474525 0 0,0 -0.23201184220847249,0.3385122115400697 l -2.3826791657562705 -1.663295105887237" fill="#ff0000" stroke="none" /><line stroke="#e1ed5e" stroke-width="0.3" x1="143.1302829299769" x2="145.66735839644613" y1="173.24464959558577" y2="177.55315839532614" /><path d="M 143.63769802327073 174.10635135553383 a86.0,86.0 0 0,1 -40.68552437913181,11.842963189579606" fill="none" id="id102" stroke="none" /><text fill="#e1ed5e" style="font-size:6.75px; font-family:Arial;" text-anchor="middle"><textPath startOffset="21.407464694133747" xlink:href="#id102">June</textPath></text><line stroke="#e1ed5e" stroke-width="0.3" x1="101.45913802915013" x2="101.54496967792366" y1="184.9874750549273" y2="189.98673829345242" /><path d="M 101.47630435890484 185.9873277026323 a86.0,86.0 0 0,1 -42.54439059252881,-10.42667462771756" fill="none" id="id103" stroke="none" /><text fill="#e1ed5e" style="font-size:6.75px; font-family:Arial;" text-anchor="middle"><textPath startOffset="22.145653131862474" xlink:href="#id103">July</textPath></text><line stroke="#e1ed5e" stroke-width="0.3" x1="58.13341422392154" x2="55.67067388415222" y1="173.97424548756322" y2="178.32567169271397" /><path d="M 57.64086615596768 174.84453072859336 a86.0,86.0 0 0,1 -31.369924170532247,-30.572349798747897" fill="none" id="id104" stroke="none" /><text fill="#e1ed5e" style="font-size:6.75px; font-family:Arial;" text-anchor="middle"><textPath startOffset="22.145653131862474" xlink:href="#id104">August</textPath></text><path d="M 82.98947788004972 112.3143062007846 l -2.7329882418132962 1.9784727250295155 a24.373955994611585,24.373955994611585 0 0,0 -0.24244530458902458,-0.3410296831617755 l 2.766548644932281 -1.931265815158236" fill="#ff0701" stroke="none" /><line stroke="#e1ed5e" stroke-width="0.3" x1="26.387840678322732" x2="22.057713659400548" y1="142.50000000000003" y2="145.00000000000006" /><path d="M 25.521815274538298 143.00000000000003 a86.0,86.0 0 0,1 -11.493303480769221,-40.785679425670985" fill="none" id="id105" stroke="none" /><text fill="#e1ed5e" style="font-size:6.75px; font-family:Arial;" text-anchor="middle"><textPath startOffset="21.40746469413373" xlink:href="#id105">September</textPath></text><line stroke="#e1ed5e" stroke-width="0.3" x1="15.003131293944662" x2="10.003315487706104" y1="100.72959589197737" y2="100.7725132973878" /><path d="M 14.003168132696942 100.73817937305945 a86.0,86.0 0 0,1 10.791469493833604,-42.45332614584628" fill="none" id="id106" stroke="none" /><text fill="#e1ed5e" style="font-size:6.75px; font-family:Arial;" text-anchor="middle"><textPath startOffset="22.145653131862435" xlink:href="#id106">October</textPath></text><line stroke="#e1ed5e" stroke-width="0.3" x1="26.387840678322718" x2="22.05771365940052" y1="57.49999999999999" y2="54.99999999999999" /><path d="M 25.521815274538284 56.99999999999999 a86.0,86.0 0 0,1 29.574782752854787,-30.34633250058573" fill="none" id="id107" stroke="none" /><text fill="#e1ed5e" style="font-size:6.75px; font-family:Arial;" text-anchor="middle"><textPath startOffset="21.40746469413373" xlink:href="#id107">November</textPath></text><line stroke="#e1ed5e" stroke-width="0.3" x1="56.869717070023135" x2="54.33264160355391" y1="26.7553504044142" y2="22.446841604673864" /><path d="M 56.362301976729285 25.89364864446614 a86.0,86.0 0 0,1 42.16139366436587,-11.88097634709845" fill="none" id="id108" stroke="none" /><text fill="#e1ed5e" style="font-size:6.75px; font-family:Arial;" text-anchor="middle"><textPath startOffset="22.145653131862474" xlink:href="#id108">December</textPath></text><path d="M 89.65649057296885 81.72400993836675 l -1.4318209519453586 -2.5298904276536724 a23.90696694414701,23.90696694414701 0 0,0 0.35889572727153735,-0.19907341001710177 l 1.3881810365177185 2.5540967531039205" fill="#ff0000" stroke="none" /></svg>